<mxfile modified="2020-07-18T08:13:27.008Z" host="www.draw.io" agent="Mozilla/5.0 (Macintosh; Intel Mac OS X 10_14_6) AppleWebKit/537.36 (KHTML, like Gecko) Chrome/84.0.4147.89 Safari/537.36" etag="jDACMA8dGG4-cKFX1-gV" version="12.9.0" type="github">
  <diagram id="bazxHvl_UKXMVMI2n2-C" name="Page-1">
    <mxGraphModel dx="861" dy="870" grid="0" gridSize="10" guides="1" tooltips="1" connect="1" arrows="1" fold="1" page="1" pageScale="1" pageWidth="850" pageHeight="1100" background="none" math="0" shadow="0">
      <root>
        <mxCell id="0" />
        <mxCell id="1" parent="0" />
        <mxCell id="zHzab9P2DYDksBdTa2nC-3" value="&lt;b&gt;AWSDC&lt;/b&gt;" style="outlineConnect=0;gradientColor=none;html=1;whiteSpace=wrap;fontSize=12;fontStyle=0;shape=mxgraph.aws4.group;grIcon=mxgraph.aws4.group_vpc;strokeColor=#879196;fillColor=none;verticalAlign=top;align=left;spacingLeft=30;fontColor=#879196;dashed=0;" parent="1" vertex="1">
          <mxGeometry x="516" y="118" width="308" height="475" as="geometry" />
        </mxCell>
        <mxCell id="zHzab9P2DYDksBdTa2nC-11" value="&amp;nbsp;Private&amp;nbsp; &amp;nbsp;Subnet" style="outlineConnect=0;gradientColor=none;html=1;whiteSpace=wrap;fontSize=12;fontStyle=0;shape=mxgraph.aws4.group;grIcon=mxgraph.aws4.group_subnet;strokeColor=#879196;fillColor=none;verticalAlign=top;align=left;spacingLeft=30;fontColor=#879196;dashed=0;" parent="1" vertex="1">
          <mxGeometry x="649" y="363" width="153" height="208" as="geometry" />
        </mxCell>
        <mxCell id="AjvQf6BMv66kx0xezKMl-2" value="&lt;b&gt;OnPREM&lt;/b&gt;" style="outlineConnect=0;gradientColor=none;html=1;whiteSpace=wrap;fontSize=12;fontStyle=0;shape=mxgraph.aws4.group;grIcon=mxgraph.aws4.group_vpc;strokeColor=#879196;fillColor=none;verticalAlign=top;align=left;spacingLeft=30;fontColor=#879196;dashed=0;" parent="1" vertex="1">
          <mxGeometry x="23" y="118" width="318" height="474" as="geometry" />
        </mxCell>
        <mxCell id="zHzab9P2DYDksBdTa2nC-10" value="" style="group" parent="1" vertex="1" connectable="0">
          <mxGeometry x="662" y="393" width="130" height="168" as="geometry" />
        </mxCell>
        <mxCell id="zHzab9P2DYDksBdTa2nC-5" value="&lt;span style=&quot;font-size: 11px&quot;&gt;AURORA MYSQL&lt;/span&gt;" style="points=[[0,0],[0.25,0],[0.5,0],[0.75,0],[1,0],[1,0.25],[1,0.5],[1,0.75],[1,1],[0.75,1],[0.5,1],[0.25,1],[0,1],[0,0.75],[0,0.5],[0,0.25]];outlineConnect=0;gradientColor=none;html=1;whiteSpace=wrap;fontSize=12;fontStyle=0;shape=mxgraph.aws4.group;grIcon=mxgraph.aws4.group_ec2_instance_contents;strokeColor=#D86613;fillColor=none;verticalAlign=top;align=left;spacingLeft=30;fontColor=#D86613;dashed=0;" parent="zHzab9P2DYDksBdTa2nC-10" vertex="1">
          <mxGeometry width="130" height="168" as="geometry" />
        </mxCell>
        <mxCell id="zHzab9P2DYDksBdTa2nC-7" value="Schema&lt;br&gt;Stored Procedures&lt;br&gt;Data" style="rounded=1;whiteSpace=wrap;html=1;" parent="zHzab9P2DYDksBdTa2nC-10" vertex="1">
          <mxGeometry x="4" y="50" width="120" height="98" as="geometry" />
        </mxCell>
        <mxCell id="zHzab9P2DYDksBdTa2nC-13" value="" style="group" parent="1" vertex="1" connectable="0">
          <mxGeometry x="41" y="381" width="130" height="130" as="geometry" />
        </mxCell>
        <mxCell id="AjvQf6BMv66kx0xezKMl-7" value="ORACLE 11G&lt;br&gt;SALESDB&amp;nbsp;" style="points=[[0,0],[0.25,0],[0.5,0],[0.75,0],[1,0],[1,0.25],[1,0.5],[1,0.75],[1,1],[0.75,1],[0.5,1],[0.25,1],[0,1],[0,0.75],[0,0.5],[0,0.25]];outlineConnect=0;gradientColor=none;html=1;whiteSpace=wrap;fontSize=12;fontStyle=0;shape=mxgraph.aws4.group;grIcon=mxgraph.aws4.group_ec2_instance_contents;strokeColor=#D86613;fillColor=none;verticalAlign=top;align=left;spacingLeft=30;fontColor=#D86613;dashed=0;" parent="zHzab9P2DYDksBdTa2nC-13" vertex="1">
          <mxGeometry width="130" height="130" as="geometry" />
        </mxCell>
        <mxCell id="zHzab9P2DYDksBdTa2nC-2" value="Schema&lt;br&gt;Stored Procedures&lt;br&gt;Data" style="rounded=1;whiteSpace=wrap;html=1;" parent="zHzab9P2DYDksBdTa2nC-13" vertex="1">
          <mxGeometry x="4" y="50" width="120" height="60" as="geometry" />
        </mxCell>
        <mxCell id="zHzab9P2DYDksBdTa2nC-15" value="" style="group" parent="1" vertex="1" connectable="0">
          <mxGeometry x="41" y="167" width="130" height="140" as="geometry" />
        </mxCell>
        <mxCell id="AjvQf6BMv66kx0xezKMl-6" value="TOMCAT8&amp;nbsp;" style="points=[[0,0],[0.25,0],[0.5,0],[0.75,0],[1,0],[1,0.25],[1,0.5],[1,0.75],[1,1],[0.75,1],[0.5,1],[0.25,1],[0,1],[0,0.75],[0,0.5],[0,0.25]];outlineConnect=0;gradientColor=none;html=1;whiteSpace=wrap;fontSize=12;fontStyle=0;shape=mxgraph.aws4.group;grIcon=mxgraph.aws4.group_ec2_instance_contents;strokeColor=#D86613;fillColor=none;verticalAlign=top;align=left;spacingLeft=30;fontColor=#D86613;dashed=0;" parent="zHzab9P2DYDksBdTa2nC-15" vertex="1">
          <mxGeometry y="-10" width="130" height="130" as="geometry" />
        </mxCell>
        <mxCell id="zHzab9P2DYDksBdTa2nC-1" value="JSP" style="rounded=1;whiteSpace=wrap;html=1;" parent="zHzab9P2DYDksBdTa2nC-15" vertex="1">
          <mxGeometry x="20" y="40" width="90" height="20" as="geometry" />
        </mxCell>
        <mxCell id="zHzab9P2DYDksBdTa2nC-16" value="JDBC Conn String" style="rounded=1;whiteSpace=wrap;html=1;" parent="zHzab9P2DYDksBdTa2nC-15" vertex="1">
          <mxGeometry x="5" y="60" width="120" height="30" as="geometry" />
        </mxCell>
        <mxCell id="thpAZCQ8_dKzy4YzaB0K-42" style="edgeStyle=orthogonalEdgeStyle;rounded=0;orthogonalLoop=1;jettySize=auto;html=1;entryX=0;entryY=0.75;entryDx=0;entryDy=0;" parent="1" source="zHzab9P2DYDksBdTa2nC-23" target="zHzab9P2DYDksBdTa2nC-5" edge="1">
          <mxGeometry relative="1" as="geometry" />
        </mxCell>
        <mxCell id="zHzab9P2DYDksBdTa2nC-23" value="AWS Database Migration Service" style="outlineConnect=0;fontColor=#232F3E;gradientColor=none;strokeColor=#ffffff;fillColor=#232F3E;dashed=0;verticalLabelPosition=middle;verticalAlign=bottom;align=center;html=1;whiteSpace=wrap;fontSize=10;fontStyle=1;spacing=3;shape=mxgraph.aws4.productIcon;prIcon=mxgraph.aws4.database_migration_service;" parent="1" vertex="1">
          <mxGeometry x="535" y="459" width="80" height="120" as="geometry" />
        </mxCell>
        <mxCell id="zHzab9P2DYDksBdTa2nC-39" value="Schema/Stored Procedures" style="text;html=1;strokeColor=none;fillColor=none;align=center;verticalAlign=middle;whiteSpace=wrap;rounded=0;fontStyle=0" parent="1" vertex="1">
          <mxGeometry x="349" y="443" width="160" height="20" as="geometry" />
        </mxCell>
        <mxCell id="zHzab9P2DYDksBdTa2nC-43" value="Table Data" style="text;html=1;strokeColor=none;fillColor=none;align=center;verticalAlign=middle;whiteSpace=wrap;rounded=0;" parent="1" vertex="1">
          <mxGeometry x="345" y="540" width="160" height="20" as="geometry" />
        </mxCell>
        <mxCell id="thpAZCQ8_dKzy4YzaB0K-5" value="" style="group" parent="1" vertex="1" connectable="0">
          <mxGeometry x="195" y="381" width="130" height="130" as="geometry" />
        </mxCell>
        <mxCell id="thpAZCQ8_dKzy4YzaB0K-6" value="Windows Server" style="points=[[0,0],[0.25,0],[0.5,0],[0.75,0],[1,0],[1,0.25],[1,0.5],[1,0.75],[1,1],[0.75,1],[0.5,1],[0.25,1],[0,1],[0,0.75],[0,0.5],[0,0.25]];outlineConnect=0;gradientColor=none;html=1;whiteSpace=wrap;fontSize=12;fontStyle=0;shape=mxgraph.aws4.group;grIcon=mxgraph.aws4.group_ec2_instance_contents;strokeColor=#D86613;fillColor=none;verticalAlign=top;align=left;spacingLeft=30;fontColor=#D86613;dashed=0;" parent="thpAZCQ8_dKzy4YzaB0K-5" vertex="1">
          <mxGeometry width="130" height="130" as="geometry" />
        </mxCell>
        <mxCell id="zHzab9P2DYDksBdTa2nC-21" value="&lt;font color=&quot;#000000&quot;&gt;Schema &lt;br&gt;Conversion &lt;br&gt;Tool&lt;/font&gt;" style="shape=image;html=1;verticalAlign=top;verticalLabelPosition=bottom;labelBackgroundColor=#ffffff;imageAspect=0;aspect=fixed;image=https://cdn0.iconfinder.com/data/icons/social-flat-rounded-rects/512/aws-128.png" parent="thpAZCQ8_dKzy4YzaB0K-5" vertex="1">
          <mxGeometry x="46" y="29" width="50" height="50" as="geometry" />
        </mxCell>
        <mxCell id="thpAZCQ8_dKzy4YzaB0K-8" value="10.100.0.0/16&lt;br&gt;" style="text;html=1;strokeColor=none;fillColor=none;align=center;verticalAlign=middle;whiteSpace=wrap;rounded=0;fontStyle=1" parent="1" vertex="1">
          <mxGeometry x="135" y="121" width="40" height="20" as="geometry" />
        </mxCell>
        <mxCell id="thpAZCQ8_dKzy4YzaB0K-9" value="&lt;b&gt;10.200.0.0/16&lt;/b&gt;" style="text;html=1;strokeColor=none;fillColor=none;align=center;verticalAlign=middle;whiteSpace=wrap;rounded=0;" parent="1" vertex="1">
          <mxGeometry x="626" y="122.5" width="40" height="17" as="geometry" />
        </mxCell>
        <mxCell id="thpAZCQ8_dKzy4YzaB0K-15" value="" style="shape=flexArrow;endArrow=classic;startArrow=classic;html=1;" parent="1" edge="1">
          <mxGeometry width="50" height="50" relative="1" as="geometry">
            <mxPoint x="341" y="132" as="sourcePoint" />
            <mxPoint x="514" y="132" as="targetPoint" />
          </mxGeometry>
        </mxCell>
        <mxCell id="thpAZCQ8_dKzy4YzaB0K-16" value="VPC Peering&lt;br&gt;Direct Connect Emulating" style="text;html=1;strokeColor=none;fillColor=none;align=center;verticalAlign=middle;whiteSpace=wrap;rounded=1;" parent="1" vertex="1">
          <mxGeometry x="345" y="149" width="160" height="20" as="geometry" />
        </mxCell>
        <mxCell id="thpAZCQ8_dKzy4YzaB0K-26" value="" style="endArrow=classic;html=1;exitX=1;exitY=0.25;exitDx=0;exitDy=0;entryX=0;entryY=0.25;entryDx=0;entryDy=0;" parent="1" source="AjvQf6BMv66kx0xezKMl-7" target="thpAZCQ8_dKzy4YzaB0K-6" edge="1">
          <mxGeometry width="50" height="50" relative="1" as="geometry">
            <mxPoint x="206" y="546" as="sourcePoint" />
            <mxPoint x="256" y="496" as="targetPoint" />
          </mxGeometry>
        </mxCell>
        <mxCell id="thpAZCQ8_dKzy4YzaB0K-39" style="edgeStyle=orthogonalEdgeStyle;rounded=0;orthogonalLoop=1;jettySize=auto;html=1;strokeWidth=3;strokeColor=#FFFF99;" parent="1" source="AjvQf6BMv66kx0xezKMl-7" target="zHzab9P2DYDksBdTa2nC-23" edge="1">
          <mxGeometry relative="1" as="geometry">
            <Array as="points">
              <mxPoint x="124" y="533" />
            </Array>
          </mxGeometry>
        </mxCell>
        <mxCell id="thpAZCQ8_dKzy4YzaB0K-40" style="edgeStyle=orthogonalEdgeStyle;rounded=0;orthogonalLoop=1;jettySize=auto;html=1;entryX=0;entryY=0.25;entryDx=0;entryDy=0;strokeColor=#FFFF99;strokeWidth=3;" parent="1" source="zHzab9P2DYDksBdTa2nC-21" target="zHzab9P2DYDksBdTa2nC-5" edge="1">
          <mxGeometry relative="1" as="geometry" />
        </mxCell>
        <mxCell id="Sd76PGLH8MflU_CSGW3k-1" style="edgeStyle=orthogonalEdgeStyle;rounded=0;orthogonalLoop=1;jettySize=auto;html=1;strokeWidth=2;strokeColor=#FF9999;" edge="1" parent="1" source="AjvQf6BMv66kx0xezKMl-6" target="zHzab9P2DYDksBdTa2nC-5">
          <mxGeometry relative="1" as="geometry" />
        </mxCell>
      </root>
    </mxGraphModel>
  </diagram>
</mxfile>
